<svg width="750" height="207" viewBox="0 0 750 207" fill="none" xmlns="http://www.w3.org/2000/svg">
<path opacity="0.5" fill-rule="evenodd" clip-rule="evenodd" d="M750 77.8221L255.939 138.485L256 138.981L750 78.3258V77.8221Z" fill="white"/>
<path fill-rule="evenodd" clip-rule="evenodd" d="M465.066 43L190 79.9137L190.067 80.4092L465.066 43.5045V43Z" fill="white" fill-opacity="0.4"/>
<path fill-rule="evenodd" clip-rule="evenodd" d="M596.066 60L321 96.9137L321.067 97.4092L596.066 60.5045V60Z" fill="white" fill-opacity="0.4"/>
<path fill-rule="evenodd" clip-rule="evenodd" d="M0 137.286L166.066 115V115.504L0 137.79V137.286Z" fill="white" fill-opacity="0.4"/>
<path fill-rule="evenodd" clip-rule="evenodd" d="M750 0.251312L678 9.91364L678.067 10.4092L750 0.755793V0.251312Z" fill="white" fill-opacity="0.4"/>
<path opacity="0.5" fill-rule="evenodd" clip-rule="evenodd" d="M750 162.873L390.612 207H394.714L750 163.376V162.873Z" fill="white"/>
<path fill-rule="evenodd" clip-rule="evenodd" d="M0 106.639L68.0665 97.5045V97L0 106.134V106.639Z" fill="white" fill-opacity="0.4"/>
</svg>
