<svg xmlns="http://www.w3.org/2000/svg" xmlns:xlink="http://www.w3.org/1999/xlink" x="0px" y="0px" viewBox="0 0 28 28">
	<path fill="#FF2F74" d="M3.8,3.8C6.3,1.3,9.7,0,14,0s7.7,1.3,10.2,3.8S28,9.7,28,14s-1.3,7.7-3.8,10.2C21.7,26.7,18.3,28,14,28
		c-4.3,0-7.7-1.3-10.2-3.8C1.3,21.7,0,18.3,0,14S1.3,6.3,3.8,3.8z"/>
	<path fill="#ffffff" d="M13,17.3c0-0.3,0.1-0.5,0.3-0.7s0.4-0.3,0.7-0.3c0.3,0,0.5,0.1,0.7,0.3S15,17,15,17.3c0,0.3-0.1,0.5-0.3,0.7
		s-0.4,0.3-0.7,0.3c-0.3,0-0.5-0.1-0.7-0.3S13,17.6,13,17.3z M13.2,8.9h1.5L14.6,15h-1.3L13.2,8.9z"/>
</svg>
